<svg width="52" height="52" viewBox="0 0 52 52" fill="none" xmlns="http://www.w3.org/2000/svg">
<rect x="-0.5" y="0.5" width="50.4521" height="50.4521" rx="9.5" transform="matrix(-1 0 0 1 50.4521 0)" stroke="#F8951E"/>
<path d="M24.9558 36.843C18.7597 36.843 13.7194 31.8016 13.7194 25.6066C13.7194 19.4095 18.7597 14.3692 24.9558 14.3692C31.152 14.3692 36.1933 19.4095 36.1933 25.6066C36.1933 27.9486 35.4719 30.1248 34.241 31.927L36.4789 34.083C38.2196 31.7072 39.2483 28.777 39.2483 25.6061C39.2483 17.6753 32.8191 11.2461 24.8883 11.2461C16.9575 11.2461 10.5283 17.6752 10.5283 25.6061C10.5283 33.5369 16.9575 39.966 24.8883 39.966C28.621 39.966 32.0207 38.5417 34.5743 36.2072L32.164 34.2184C30.2114 35.8553 27.6971 36.843 24.9558 36.843Z" fill="#F8951E"/>
<path d="M31.9566 29.7268C32.6678 28.5184 33.0762 27.1105 33.0762 25.6072C33.0762 21.1133 29.4336 17.4707 24.9408 17.4707C20.4469 17.4707 16.8042 21.1133 16.8042 25.6072C16.8042 30.1 20.4469 33.7427 24.9408 33.7427C26.7234 33.7427 28.3722 33.1689 29.7128 32.1963L26.8183 29.808C26.2606 30.0502 25.6459 30.1852 24.9993 30.1852C22.4707 30.1852 20.4208 28.1355 20.4208 25.6066C20.4208 23.0781 22.4708 21.0282 24.9993 21.0282C27.5276 21.0282 29.5777 23.0781 29.5777 25.6066C29.5777 26.1558 29.4789 26.6813 29.3014 27.1689L31.9566 29.7268Z" fill="#F8951E"/>
<path d="M41.4463 37.6546L38.8991 35.185C38.9282 35.1421 38.7167 35.0665 38.5085 35.0594L36.4591 35.3646L36.3296 35.2406L28.1402 27.3509L28.159 27.3297C28.2115 27.2709 28.2063 27.1807 28.1475 27.1282L28.1454 27.1264C28.0866 27.0739 27.9964 27.079 27.9439 27.1379L27.923 27.1613C27.6196 26.9571 27.2253 26.9581 26.9247 27.1538L24.9774 25.6515C24.9608 25.6386 24.9273 25.6515 24.9015 25.6803L24.9006 25.6814C24.8748 25.7103 24.866 25.745 24.8806 25.76L26.5986 27.5272C26.4492 27.8447 26.4964 28.2269 26.7292 28.4997L26.7083 28.5232C26.6558 28.5821 26.661 28.6723 26.7198 28.7247L26.7219 28.7266C26.7807 28.7791 26.8709 28.7739 26.9234 28.7151L26.9423 28.694L35.7139 35.9315L36.0421 36.2025L35.8441 36.0391L35.7755 38.0753C35.7699 38.2414 35.8421 38.4006 35.9706 38.506L38.6915 40.7365C38.7453 40.7806 38.8261 40.7419 38.8255 40.6724L38.8051 38.4828L39.8522 39.347C39.9042 39.3901 39.9695 39.4086 40.0329 39.4036C40.0721 39.4007 40.11 39.3877 40.1444 39.3669C40.1519 39.3625 40.1596 39.3587 40.1666 39.3533C40.1689 39.3515 40.171 39.349 40.1732 39.3472C40.1836 39.3389 40.1939 39.3301 40.203 39.3199L40.2035 39.3194L40.2036 39.3193L40.2068 39.3156L40.2069 39.3155L40.2074 39.315C40.2265 39.2936 40.2404 39.2692 40.251 39.2439C40.2528 39.2394 40.2555 39.2352 40.2571 39.2306C40.2572 39.2301 40.2572 39.2295 40.2575 39.229C40.2678 39.1991 40.2724 39.1677 40.2712 39.1365C40.269 39.0729 40.2432 39.0101 40.1944 38.9632L39.536 38.3297L39.223 38.0282L41.3961 37.7994C41.4675 37.7918 41.4977 37.7045 41.4463 37.6546Z" fill="#F8951E"/>
</svg>
