<svg width="60" height="60" viewBox="0 0 60 60" fill="none" xmlns="http://www.w3.org/2000/svg">
<path d="M22.8251 56.3504H13.2251V15.6254V3.65039H22.8251V56.3504Z" stroke="#F8951E" stroke-width="5.12" stroke-miterlimit="10"/>
<path d="M3.6499 15.6254H56.3499V13.2254L22.8249 3.65039H13.2249L3.6499 13.2254V15.6254Z" stroke="#F8951E" stroke-width="5.12" stroke-miterlimit="10"/>
<path d="M58.75 56.3496H1.25" stroke="#F8951E" stroke-width="5.12" stroke-miterlimit="10"/>
<path d="M51.5499 15.625V24.1C51.5233 24.9189 51.7183 25.7298 52.1143 26.447C52.5104 27.1643 53.0927 27.7613 53.7999 28.175C54.5512 28.5682 55.185 29.1533 55.6367 29.871C56.0884 30.5886 56.3419 31.4131 56.3714 32.2605C56.401 33.108 56.2055 33.9481 55.8049 34.6955C55.4044 35.4429 54.8129 36.0708 54.0908 36.5153C53.3688 36.9599 52.5418 37.2052 51.6941 37.2264C50.8464 37.2475 50.0082 37.0438 49.2649 36.6358C48.5215 36.2278 47.8995 35.6301 47.4621 34.9037C47.0248 34.1772 46.7876 33.3479 46.7749 32.5" stroke="#F8951E" stroke-width="5.12" stroke-miterlimit="10"/>
<path d="M22.8251 41.9746L13.2251 51.5746" stroke="#F8951E" stroke-width="5.12" stroke-miterlimit="10"/>
<path d="M13.2251 30L22.8251 39.575" stroke="#F8951E" stroke-width="5.12" stroke-miterlimit="10"/>
<path d="M22.8251 18.0254L13.2251 27.6004" stroke="#F8951E" stroke-width="5.12" stroke-miterlimit="10"/>
</svg>
