<svg width="70" height="70" viewBox="0 0 70 70" fill="none" xmlns="http://www.w3.org/2000/svg">
<path d="M52.501 52.4961H35.001V35.6086C33.076 37.3878 30.5385 38.4961 27.7093 38.4961C21.7593 38.4961 16.9176 33.6544 16.9176 27.7044C16.9176 24.8423 18.0546 22.0974 20.0785 20.0736C22.1023 18.0497 24.8472 16.9128 27.7093 16.9128C33.6593 16.9128 38.501 21.7544 38.501 27.7044C38.501 30.5336 37.3926 33.0711 35.6135 34.9961H52.501V52.4961ZM55.4176 8.74609H14.5843C11.3468 8.74609 8.75098 11.3419 8.75098 14.5794V55.4128C8.75098 56.9599 9.36556 58.4436 10.4595 59.5375C11.5535 60.6315 13.0372 61.2461 14.5843 61.2461H55.4176C56.9647 61.2461 58.4485 60.6315 59.5424 59.5375C60.6364 58.4436 61.251 56.9599 61.251 55.4128V14.5794C61.251 11.3419 58.626 8.74609 55.4176 8.74609Z" fill="#F8951E"/>
</svg>
