<svg width="52" height="52" viewBox="0 0 52 52" fill="none" xmlns="http://www.w3.org/2000/svg">
<rect x="-0.5" y="0.5" width="50.4521" height="50.4521" rx="9.5" transform="matrix(-1 0 0 1 50.4521 0.310547)" fill="white" fill-opacity="0.01" stroke="#F8951E"/>
<g clip-path="url(#clip0_257_3864)">
<path d="M36.1745 12.168L32.2791 16.0634L32.6413 16.4395C32.3833 16.6478 32.1222 16.8511 31.8687 17.0316C31.4597 17.3237 31.067 17.5581 30.8009 17.668C30.7837 17.6757 30.7113 17.696 30.5677 17.6954C30.3384 17.6979 29.9547 17.6395 29.4846 17.5677C29.0126 17.4966 28.4479 17.4191 27.8114 17.4184C27.2561 17.4166 26.6437 17.4839 25.999 17.6611C25.3555 17.4845 24.7444 17.4184 24.1905 17.4191C23.5533 17.4191 22.9886 17.4966 22.5166 17.5684C22.0465 17.6402 21.6634 17.6987 21.4341 17.6961C21.2899 17.6973 21.2181 17.6758 21.2035 17.6687C20.9195 17.5525 20.4913 17.2933 20.0505 16.9725C19.8225 16.8067 19.59 16.625 19.3594 16.4383L19.7209 16.0634L15.8255 12.168L6 22.3447L9.89539 26.2401L11.0356 25.0591L13.5525 27.2558C13.623 27.677 13.7558 28.0746 13.9089 28.452C14.0086 28.6922 14.1179 28.9234 14.2298 29.1406C13.9864 29.5434 13.8537 30.0034 13.8549 30.4696C13.8543 30.9321 13.9813 31.4047 14.2424 31.8246C14.6395 32.463 15.2754 32.8645 15.962 32.9916C15.9659 33.4458 16.0917 33.9089 16.3477 34.3205C16.8337 35.102 17.6748 35.5352 18.5323 35.5338C18.5654 35.5338 18.5991 35.5287 18.632 35.5275C18.6752 35.8909 18.7947 36.253 18.9992 36.582C19.4852 37.3634 20.3269 37.7966 21.1832 37.7953C21.2684 37.7953 21.3529 37.7864 21.4386 37.7781C21.4792 38.1053 21.5879 38.4318 21.7715 38.7266C22.2143 39.4381 22.9804 39.8332 23.7598 39.8313C24.1803 39.832 24.611 39.7176 24.9934 39.48L26.1611 38.7534C26.3911 38.902 26.6324 39.0328 26.8859 39.1395C27.3579 39.3384 27.868 39.4603 28.3984 39.4609C28.9803 39.4635 29.5946 39.3041 30.1231 38.9324C30.4674 38.6923 30.759 38.3632 30.9978 37.9752C31.0347 37.9764 31.0645 37.9828 31.1027 37.9834C31.3447 37.9834 31.6102 37.9472 31.8733 37.8652C32.1381 37.7846 32.4012 37.6638 32.682 37.5032C33.3515 37.1259 33.753 36.5706 33.948 36.0948C33.9912 35.9907 34.0223 35.8928 34.0503 35.7982C34.2123 35.7468 34.3673 35.6838 34.5077 35.6026C35.0254 35.3046 35.3627 34.8517 35.5705 34.3969C35.7788 33.9375 35.8703 33.4605 35.8716 33.0019C35.8716 32.9567 35.8659 32.9129 35.8639 32.8684C36.2025 32.73 36.5067 32.5375 36.7659 32.3107C37.0315 32.0781 37.2545 31.8076 37.4202 31.4988C37.5855 31.1914 37.696 30.8395 37.6966 30.4539C37.6973 30.203 37.6458 29.9387 37.5334 29.6909C37.4971 29.6122 37.4457 29.5398 37.3987 29.4667C37.5963 29.1128 37.7976 28.714 37.9627 28.2833C38.0866 27.9573 38.1909 27.6156 38.2505 27.2566L40.8748 24.9666L42.1046 26.2402L46 22.3447L36.1745 12.168ZM16.8394 31.0331L16.7942 31.0617C16.6767 31.1342 16.5534 31.1666 16.4264 31.1672C16.1907 31.1659 15.9645 31.0509 15.8318 30.8369C15.7594 30.7194 15.7263 30.5955 15.7263 30.4697C15.7276 30.2327 15.842 30.0078 16.0554 29.8751L17.5984 28.9165C17.7159 28.8434 17.8392 28.8117 17.9649 28.8104C18.2019 28.8129 18.4268 28.926 18.5602 29.1413L19.3549 28.6477L18.5602 29.142C18.6327 29.2588 18.665 29.382 18.6657 29.5079C18.6644 29.673 18.6053 29.8306 18.4987 29.9577L17.1734 30.7809C17.0528 30.8559 16.9429 30.9429 16.8394 31.0331ZM18.8995 33.557C18.782 33.6294 18.6587 33.6624 18.5323 33.6624C18.2959 33.6612 18.0698 33.5468 17.937 33.3327C17.8645 33.2152 17.8322 33.0907 17.8316 32.9649C17.8321 32.8011 17.8912 32.6435 17.9973 32.5177L19.3231 31.6926C19.4432 31.6182 19.5519 31.5319 19.6554 31.4416L19.7037 31.4124C19.8212 31.3394 19.9451 31.307 20.0702 31.307C20.3078 31.3082 20.532 31.4226 20.6654 31.6373C20.7378 31.7548 20.7702 31.8773 20.7709 32.0038C20.7696 32.2395 20.6559 32.4656 20.4399 32.5997L18.8995 33.557ZM23.0915 34.8605L21.5504 35.8185C21.4335 35.891 21.3102 35.924 21.1832 35.924C20.9475 35.9227 20.7213 35.8084 20.5886 35.5943C20.5162 35.4762 20.4838 35.3529 20.4831 35.2265C20.4851 34.9895 20.5987 34.7653 20.8122 34.6319L22.3552 33.6733C22.4727 33.6002 22.596 33.5685 22.7217 33.5685C22.9587 33.5691 23.1836 33.6834 23.317 33.8982C23.3894 34.0158 23.4218 34.139 23.4225 34.2654C23.4212 34.5009 23.3075 34.7258 23.0915 34.8605ZM25.4807 36.4232C25.5295 36.5013 25.5505 36.5827 25.5512 36.6677C25.5499 36.8259 25.4743 36.9765 25.3288 37.0673L24.0055 37.8893C23.9268 37.9388 23.8455 37.9598 23.7597 37.9598C23.6009 37.9591 23.4504 37.8823 23.3608 37.7388C23.3119 37.6593 23.2909 37.578 23.2902 37.493C23.2921 37.3334 23.3677 37.1841 23.5106 37.0952H23.5112L24.8358 36.272C24.9165 36.2218 24.9972 36.2008 25.0816 36.2008C25.2411 36.202 25.3904 36.2777 25.4799 36.4219L26.2752 35.9289L25.4807 36.4232ZM35.7712 30.6138C35.7032 30.7453 35.5482 30.9168 35.352 31.0369C35.1556 31.1583 34.9276 31.2294 34.7091 31.2288C34.6315 31.2288 34.5566 31.242 34.4835 31.2611C34.3501 31.2319 34.2166 31.1912 34.0852 31.1391C33.678 30.9803 33.2976 30.723 33.0288 30.5058C32.8941 30.3972 32.7874 30.2994 32.7162 30.2314L32.6375 30.1533L32.6203 30.1355L32.6177 30.133H32.6172C32.3554 29.8484 31.912 29.8293 31.6268 30.091C31.3416 30.3528 31.3219 30.7962 31.5843 31.0833C31.6077 31.1074 31.9604 31.4923 32.5378 31.8888C32.8275 32.087 33.1737 32.2891 33.572 32.4453C33.6641 32.4816 33.76 32.5152 33.8585 32.5457C33.8859 32.6073 33.9208 32.6658 33.962 32.721L33.9602 32.7223C33.9652 32.7261 34.0034 32.8469 34.0002 33.0019C34.0047 33.2604 33.9106 33.599 33.7753 33.7857C33.7093 33.881 33.642 33.9413 33.5766 33.9788C33.5098 34.0157 33.4425 34.0398 33.3161 34.0417L33.2709 34.0411C33.2442 34.0398 33.2189 34.0443 33.1928 34.0455C33.1916 34.0455 33.1909 34.0455 33.1909 34.0455C32.5823 34.0481 32.0158 33.787 31.5977 33.5012C31.3894 33.3602 31.2223 33.2166 31.1098 33.1112C31.0545 33.0591 31.012 33.0159 30.9859 32.9892L30.9587 32.96L30.9542 32.9543H30.9536C30.7002 32.6634 30.2587 32.6316 29.9658 32.8851C29.6723 33.1391 29.6405 33.582 29.8946 33.8754L29.894 33.8748C29.9213 33.9053 30.2453 34.2787 30.8088 34.6625C31.1798 34.9134 31.6638 35.1732 32.2387 35.3231C32.2324 35.3397 32.2286 35.3562 32.2209 35.3727C32.1473 35.5391 32.0418 35.7106 31.7547 35.8784C31.5609 35.989 31.4224 36.0467 31.3252 36.0759C31.2274 36.1052 31.1728 36.1109 31.1029 36.1115C31.0121 36.1128 30.8755 36.0924 30.648 36.046C30.6068 36.0372 30.5655 36.0346 30.5242 36.0321C30.5089 36.0257 30.4944 36.02 30.4778 36.0117C30.2453 35.9024 29.962 35.7048 29.753 35.5366C29.6481 35.4534 29.5592 35.3771 29.4982 35.3231L29.4296 35.2609L29.4138 35.2456L29.4105 35.2431C29.1304 34.9751 28.6857 34.9852 28.4177 35.2653C28.1502 35.5455 28.1604 35.9902 28.4405 36.2576C28.4552 36.2709 28.7505 36.5543 29.1647 36.8516C29.2384 36.9037 29.3197 36.9564 29.401 37.0084C29.2866 37.1908 29.1673 37.3159 29.0504 37.3991C28.8636 37.5275 28.6603 37.5884 28.3986 37.5898C28.1642 37.5904 27.8884 37.5326 27.6128 37.4157C27.5213 37.3776 27.4318 37.3236 27.3416 37.2734C27.3943 37.0765 27.4235 36.8726 27.4229 36.668C27.4235 36.2468 27.3079 35.8161 27.0703 35.4343C26.667 34.7857 25.9942 34.4045 25.2897 34.3423C25.2897 34.3168 25.2941 34.2915 25.2941 34.2654C25.2947 33.8036 25.1677 33.3297 24.9072 32.9104V32.9117C24.4206 32.1278 23.5782 31.6945 22.7219 31.6964C22.6889 31.6964 22.6552 31.7021 22.6222 31.7034C22.579 31.3394 22.4595 30.9786 22.2551 30.6495H22.2556C21.8586 30.0098 21.2221 29.6084 20.5354 29.4826C20.531 29.0284 20.4059 28.5652 20.1498 28.1536H20.1504C19.6645 27.3716 18.8214 26.9377 17.9651 26.939C17.502 26.939 17.03 27.0661 16.6101 27.3265L15.7087 27.8868C15.687 27.8373 15.6598 27.789 15.6401 27.7394C15.4832 27.364 15.3847 26.9936 15.3739 26.7383L15.353 26.3431L12.3375 23.7107L18.0547 17.7895C18.347 18.029 18.6468 18.2666 18.9543 18.4889C19.4637 18.8561 19.9688 19.1801 20.4846 19.3973C20.8156 19.5339 21.1383 19.5676 21.4344 19.5682C21.9083 19.5663 22.3427 19.485 22.7957 19.4189C22.8249 19.4138 22.8554 19.4113 22.8852 19.4068C22.2627 19.941 21.7195 20.5191 21.2602 21.0573C20.8734 21.5115 20.5469 21.9396 20.2883 22.289C20.033 22.6365 19.836 22.9166 19.7496 23.0272C19.324 23.5811 19.1411 24.2437 19.1373 24.9075C19.1391 25.525 19.303 26.1678 19.7287 26.711C19.9409 26.9797 20.2229 27.2148 20.5595 27.3748C20.8956 27.5362 21.2805 27.6187 21.6814 27.6187C22.1788 27.6174 22.7003 27.4968 23.2524 27.2648C24.9854 26.5318 26.7717 26.0433 28.1159 25.7422C28.788 25.5923 29.3502 25.4881 29.7421 25.4227C29.8159 25.4105 29.8774 25.4004 29.9384 25.3903L35.819 30.4597L35.8215 30.4609L35.8234 30.4641C35.8227 30.4823 35.8137 30.5351 35.7712 30.6138ZM36.4516 26.343L36.4312 26.7382C36.4204 26.9643 36.3435 27.2832 36.2145 27.6136C36.1491 27.7863 36.0691 27.9605 35.9852 28.1319L30.8352 23.6927C30.6352 23.52 30.3684 23.4399 30.106 23.473C30.0603 23.4819 26.283 23.9558 22.5242 25.5402C22.1501 25.6983 21.8693 25.7472 21.6812 25.7459C21.5282 25.7459 21.4348 25.7186 21.3655 25.6855C21.2652 25.6366 21.1934 25.5673 21.1223 25.4346C21.0543 25.3038 21.0079 25.1107 21.0086 24.9074C21.0048 24.6152 21.109 24.3179 21.2258 24.177C21.3713 23.9889 21.5491 23.7323 21.7944 23.4006C22.1583 22.9077 22.6526 22.2698 23.242 21.6492C23.8302 21.0286 24.5145 20.4277 25.2316 20.0058C26.2017 19.436 27.0282 19.293 27.8115 19.2905C28.2936 19.2898 28.756 19.3502 29.2071 19.4181C29.6594 19.4848 30.0952 19.5648 30.5678 19.5674C30.8632 19.5668 31.184 19.5331 31.5137 19.3984L31.5181 19.3972C32.034 19.1799 32.539 18.8559 33.0484 18.4887C33.3541 18.2677 33.6552 18.0288 33.9461 17.79L39.5738 23.6184L36.4516 26.343Z" fill="#F8951E" stroke="#FCFCFC" stroke-width="0.125"/>
</g>
<defs>
<clipPath id="clip0_257_3864">
<rect width="40" height="40" fill="white" transform="translate(6 6)"/>
</clipPath>
</defs>
</svg>
