<svg width="60" height="60" viewBox="0 0 60 60" fill="none" className="hover:brightness-100" xmlns="http://www.w3.org/2000/svg">
<g clip-path="url(#clip0_257_3643)">
<path d="M29.2053 18.7771L10.0001 34.5948V51.6667C10.0001 52.1087 10.1757 52.5326 10.4883 52.8452C10.8008 53.1577 11.2247 53.3333 11.6668 53.3333L23.3397 53.3031C23.7803 53.3009 24.202 53.1244 24.5128 52.812C24.8236 52.4997 24.998 52.077 24.998 51.6365V41.6667C24.998 41.2246 25.1736 40.8007 25.4862 40.4882C25.7987 40.1756 26.2227 40 26.6647 40H33.3313C33.7734 40 34.1973 40.1756 34.5099 40.4882C34.8224 40.8007 34.998 41.2246 34.998 41.6667V51.6292C34.9973 51.8485 35.0399 52.0658 35.1234 52.2686C35.2068 52.4714 35.3295 52.6557 35.4843 52.8111C35.6392 52.9664 35.8231 53.0896 36.0257 53.1737C36.2282 53.2578 36.4454 53.301 36.6647 53.301L48.3334 53.3333C48.7755 53.3333 49.1994 53.1577 49.5119 52.8452C49.8245 52.5326 50.0001 52.1087 50.0001 51.6667V34.5833L30.7991 18.7771C30.5733 18.5951 30.2921 18.4959 30.0022 18.4959C29.7122 18.4959 29.431 18.5951 29.2053 18.7771ZM59.5418 29.5281L50.8334 22.35V7.92188C50.8334 7.59035 50.7017 7.27241 50.4673 7.03799C50.2329 6.80357 49.9149 6.67188 49.5834 6.67188H43.7501C43.4186 6.67188 43.1006 6.80357 42.8662 7.03799C42.6318 7.27241 42.5001 7.59035 42.5001 7.92188V15.4854L33.1741 7.8125C32.2791 7.07602 31.156 6.67335 29.997 6.67335C28.8379 6.67335 27.7149 7.07602 26.8199 7.8125L0.45218 29.5281C0.325604 29.6327 0.220883 29.7613 0.144 29.9064C0.0671163 30.0515 0.0195776 30.2103 0.0040999 30.3738C-0.0113778 30.5373 0.00550876 30.7022 0.0537948 30.8592C0.102081 31.0161 0.18082 31.162 0.285513 31.2885L2.94176 34.5177C3.04617 34.6447 3.17459 34.7498 3.31968 34.827C3.46476 34.9043 3.62366 34.9522 3.78727 34.968C3.95089 34.9837 4.11601 34.9671 4.27318 34.919C4.43035 34.8708 4.57649 34.7922 4.70322 34.6875L29.2053 14.5063C29.431 14.3243 29.7122 14.2251 30.0022 14.2251C30.2921 14.2251 30.5733 14.3243 30.7991 14.5063L55.3022 34.6875C55.4287 34.7922 55.5746 34.8709 55.7316 34.9192C55.8885 34.9675 56.0534 34.9844 56.2169 34.9689C56.3804 34.9534 56.5392 34.9059 56.6843 34.829C56.8294 34.7521 56.958 34.6474 57.0626 34.5208L59.7188 31.2917C59.8234 31.1644 59.9018 31.0178 59.9496 30.8601C59.9973 30.7025 60.0134 30.537 59.9969 30.3731C59.9804 30.2092 59.9318 30.0502 59.8537 29.9052C59.7756 29.7602 59.6696 29.632 59.5418 29.5281Z" fill="#F8951E"/>
<rect width="17.8125" height="16.875" transform="translate(21.5625 36.5625)" fill="#F8951E"/>
<path d="M33.4373 33.0492C31.551 29.2733 25.9939 27.232 21.6974 29.73C20.9976 30.1244 20.9012 30.7881 21.146 31.283C21.3154 31.6436 21.6817 31.8906 22.1022 31.8818C24.5969 31.8081 26.7121 32.3742 27.9834 34.1945L26.3216 36.463C25.6827 37.3462 25.6542 38.0923 26.0612 38.9332L27.7212 42.3065C28.049 42.9873 28.5433 43.3102 29.3106 43.3445L31.1601 43.4467L31.7217 44.5819L31.1922 45.8322C30.9567 46.3424 30.921 46.6904 31.2162 47.2871L31.788 48.3883C32.0978 49.0141 32.6688 49.2365 33.2454 48.9038L37.7532 46.3213C38.3299 45.9885 38.4548 45.3458 38.1592 44.7119L37.6049 43.5913C37.3273 43.0123 37.0253 42.8219 36.5226 42.7563L35.2519 42.5448L34.6728 41.4291L35.7732 39.634C36.125 39.0476 36.1014 38.3969 35.6658 37.535L33.4373 33.0492ZM9.49056 46.6243C8.16408 47.2868 7.80209 48.2908 8.44676 49.612L9.59516 51.9148C10.2361 53.2101 11.242 53.4528 12.4753 52.6383L26.4242 43.4853L24.2892 39.1887L9.49056 46.6243Z" fill="#1E2226" stroke="#1E2226" stroke-width="1.14286"/>
</g>
<defs>
<clipPath id="clip0_257_3643">
<rect width="60" height="60" fill="white"/>
</clipPath>
</defs>
</svg>
