<svg width="149" height="32" viewBox="0 0 149 32" fill="none" xmlns="http://www.w3.org/2000/svg">
<path d="M137.788 25.4968C137.788 23.4229 139.472 21.7402 141.544 21.7402C143.618 21.7402 145.3 23.4229 145.3 25.4968C145.3 27.5707 143.618 29.2522 141.544 29.2522C139.472 29.2522 137.788 27.5707 137.788 25.4968Z" fill="white"/>
<path d="M17.9869 15.5442C17.9869 13.1648 17.5271 11.3996 16.6076 10.2496C15.6869 9.10068 14.2922 8.52675 12.4172 8.52675H10.4227V23.0769H11.9487C14.0313 23.0769 15.5575 22.4594 16.5292 21.2203C17.4998 19.9834 17.9869 18.0909 17.9869 15.5442ZM25.0999 15.2964C25.0999 19.6312 23.9346 22.9714 21.6042 25.3159C19.2737 27.6616 15.9977 28.8345 11.7748 28.8345H3.56934V2.85938H12.3476C16.4194 2.85938 19.5628 3.92568 21.7781 6.05721C23.9922 8.18982 25.0999 11.2681 25.0999 15.2964Z" fill="white"/>
<path d="M47.8301 28.8396H54.3595V2.75586H47.8301V28.8396Z" fill="white"/>
<path d="M63.5279 19.1033C63.5279 20.7664 63.7453 22.0348 64.179 22.9066C64.6138 23.7794 65.342 24.2153 66.3659 24.2153C67.379 24.2153 68.0953 23.7794 68.5127 22.9066C68.9301 22.0348 69.1377 20.7664 69.1377 19.1033C69.1377 17.449 68.9267 16.2011 68.504 15.3587C68.08 14.5142 67.3573 14.0913 66.3324 14.0913C65.3302 14.0913 64.6138 14.512 64.179 15.349C63.7453 16.187 63.5279 17.4381 63.5279 19.1033ZM75.7834 19.1033C75.7834 22.2718 74.9529 24.7436 73.2876 26.5153C71.6236 28.2881 69.2942 29.1751 66.2997 29.1751C63.4279 29.1751 61.1419 28.2686 59.4452 26.4555C57.7464 24.6424 56.8975 22.1925 56.8975 19.1033C56.8975 15.9446 57.7291 13.4902 59.3943 11.7402C61.0594 9.99023 63.3942 9.11523 66.4007 9.11523C68.2584 9.11523 69.9019 9.52069 71.3258 10.3305C72.7508 11.1403 73.8508 12.3001 74.6236 13.8109C75.3976 15.3196 75.7834 17.0848 75.7834 19.1033Z" fill="white"/>
<path d="M78.377 28.8341H84.9074V18.8514V9.45898H78.377V28.8341Z" fill="white"/>
<path d="M78.377 7.11631H84.9074V2.75H78.377V7.11631Z" fill="white"/>
<path d="M98.1378 23.8932C99.0194 23.8932 100.069 23.6693 101.294 23.2247V28.0997C100.414 28.4866 99.577 28.7638 98.7813 28.928C97.9856 29.0943 97.0519 29.1769 95.9834 29.1769C93.791 29.1769 92.2106 28.6258 91.2399 27.5258C90.2736 26.4258 89.7888 24.7367 89.7888 22.4573V14.4703H87.502V9.46159H89.7888V4.51374L96.3694 3.36914V9.46159H100.536V14.4703H96.3694V22.0116C96.3694 23.266 96.9596 23.8932 98.1378 23.8932Z" fill="white"/>
<path d="M113.253 23.8932C114.135 23.8932 115.185 23.6693 116.41 23.2247V28.0997C115.53 28.4866 114.692 28.7638 113.897 28.928C113.1 29.0943 112.169 29.1769 111.099 29.1769C108.906 29.1769 107.326 28.6258 106.358 27.5258C105.389 26.4258 104.904 24.7367 104.904 22.4573V14.4703H102.616V9.46159H104.904V4.43875L111.484 3.36914V9.46159H115.652V14.4703H111.484V22.0116C111.484 23.266 112.074 23.8932 113.253 23.8932Z" fill="white"/>
<path d="M124.654 16.7424C124.743 15.6816 125.047 14.9044 125.564 14.4076C126.084 13.912 126.725 13.6642 127.492 13.6642C128.329 13.6642 128.995 13.9424 129.488 14.5033C129.985 15.0609 130.244 15.8076 130.264 16.7424H124.654ZM133.863 11.399C132.311 9.87722 130.109 9.11523 127.26 9.11523C124.265 9.11523 121.961 9.99023 120.346 11.7402C118.732 13.4902 117.924 16.0012 117.924 19.2729C117.924 22.4414 118.797 24.8849 120.538 26.6001C122.28 28.3153 124.727 29.174 127.878 29.174C129.391 29.174 130.694 29.0708 131.785 28.8653C132.87 28.6621 133.92 28.2946 134.938 27.7642L133.935 23.3979C133.195 23.7001 132.49 23.9327 131.825 24.0859C130.864 24.3088 129.81 24.4207 128.662 24.4207C127.403 24.4207 126.41 24.1131 125.682 23.4979C124.953 22.8816 124.565 22.0316 124.521 20.949H136.192V17.974C136.192 15.112 135.416 12.9196 133.863 11.399Z" fill="white"/>
<path d="M33.7637 16.7424C33.8528 15.6816 34.156 14.9044 34.6734 14.4076C35.1919 13.912 35.8344 13.6642 36.6029 13.6642C37.4377 13.6642 38.1028 13.9424 38.5975 14.5033C39.0941 15.0609 39.3518 15.8076 39.3747 16.7424H33.7637ZM42.9735 11.399C41.4203 9.87722 39.2191 9.11523 36.3692 9.11523C33.3734 9.11523 31.0701 9.99023 29.4559 11.7402C27.8418 13.4902 27.0332 16.0012 27.0332 19.2729C27.0332 22.4414 27.905 24.8849 29.6485 26.6001C31.3898 28.3153 33.8365 29.174 36.9876 29.174C38.5007 29.174 39.8028 29.0708 40.8941 28.8653C41.9789 28.6621 43.029 28.2946 44.0486 27.7642L43.0442 23.3979C42.304 23.7001 41.5996 23.9327 40.9355 24.0859C39.9724 24.3088 38.9191 24.4207 37.7712 24.4207C36.5136 24.4207 35.5192 24.1131 34.791 23.4979C34.0616 22.8816 33.6746 22.0316 33.6301 20.949H45.3018V17.974C45.3018 15.112 44.5257 12.9196 42.9735 11.399Z" fill="white"/>
</svg>
